<svg version="1.1" viewBox="0.0 0.0 960.0 720.0" fill="none" stroke="none" stroke-linecap="square" stroke-miterlimit="10" xmlns:xlink="http://www.w3.org/1999/xlink" xmlns="http://www.w3.org/2000/svg"><clipPath id="p.0"><path d="m0 0l960.0 0l0 720.0l-960.0 0l0 -720.0z" clip-rule="nonzero"/></clipPath><g clip-path="url(#p.0)"><path fill="#000000" fill-opacity="0.0" d="m0 0l960.0 0l0 720.0l-960.0 0z" fill-rule="evenodd"/><path fill="#6fa8dc" d="m105.945206 365.08673l0 0c0 -100.95938 81.84375 -182.80313 182.80315 -182.80313l0 0c48.48242 0 94.979095 19.259552 129.26135 53.541794c34.282227 34.28224 53.54181 80.778946 53.54181 129.26134l0 0c0 100.95941 -81.84378 182.80316 -182.80316 182.80316l0 0c-100.9594 0 -182.80315 -81.84375 -182.80315 -182.80316z" fill-rule="evenodd"/><path fill="#ffffff" d="m233.26288 325.798q2.859375 0 4.875 0.8125q2.03125 0.796875 3.9375 2.484375l-2.15625 2.40625q-1.609375 -1.28125 -3.171875 -1.875q-1.546875 -0.609375 -3.3125 -0.609375q-2.234375 0 -3.6875 1.03125q-1.4375 1.03125 -1.4375 3.015625q0 1.25 0.484375 2.09375q0.5 0.84375 1.84375 1.546875q1.34375 0.703125 3.90625 1.484375q2.6875 0.828125 4.46875 1.78125q1.78125 0.953125 2.875 2.625q1.09375 1.671875 1.09375 4.234375q0 2.484375 -1.21875 4.390625q-1.21875 1.890625 -3.515625 2.96875q-2.296875 1.078125 -5.4375 1.078125q-5.90625 0 -9.671875 -3.6875l2.15625 -2.390625q1.734375 1.40625 3.5 2.125q1.78125 0.71875 3.96875 0.71875q2.65625 0 4.390625 -1.296875q1.734375 -1.296875 1.734375 -3.78125q0 -1.40625 -0.546875 -2.328125q-0.53125 -0.9375 -1.84375 -1.671875q-1.296875 -0.75 -3.765625 -1.5q-4.390625 -1.3125 -6.421875 -3.171875q-2.015625 -1.859375 -2.015625 -5.046875q0 -2.15625 1.140625 -3.84375q1.140625 -1.6875 3.1875 -2.640625q2.046875 -0.953125 4.640625 -0.953125zm19.430115 0.5l0 28.46875l-3.921875 0l0 -28.46875l3.921875 0zm18.754333 -0.5q2.6875 0 4.65625 0.765625q1.96875 0.765625 3.90625 2.375l-2.3125 2.390625q-1.53125 -1.234375 -2.9375 -1.765625q-1.40625 -0.546875 -3.3125 -0.546875q-2.1875 0 -4.03125 1.1875q-1.828125 1.171875 -2.984375 3.765625q-1.15625 2.578125 -1.15625 6.53125q0 6.0 1.953125 8.765625q1.96875 2.765625 5.8125 2.765625q3.140625 0 5.40625 -1.28125l0 -8.59375l-5.03125 0l-0.453125 -3.171875l9.375 0l0 13.75q-4.421875 2.53125 -9.296875 2.53125q-5.625 0 -8.796875 -3.765625q-3.15625 -3.765625 -3.15625 -11.0q0 -4.625 1.671875 -7.953125q1.6875 -3.328125 4.515625 -5.03125q2.828125 -1.71875 6.171875 -1.71875zm35.546844 28.96875l-5.25 0l-11.5625 -24.171875q0.234375 2.84375 0.375 5.265625q0.15625 2.421875 0.15625 5.84375l0 13.0625l-3.671875 0l0 -28.46875l5.109375 0l11.703125 24.21875q-0.125 -1.078125 -0.328125 -3.765625q-0.203125 -2.6875 -0.203125 -4.921875l0 -15.53125l3.671875 0l0 28.46875zm23.430267 0l-2.140625 -7.15625l-10.796875 0l-2.140625 7.15625l-3.96875 0l9.125 -28.46875l4.96875 0l9.09375 28.46875l-4.140625 0zm-11.984375 -10.328125l8.890625 0l-4.421875 -14.875l-4.46875 14.875zm24.43106 -18.140625l0 25.03125l11.6875 0l-0.453125 3.4375l-15.15625 0l0 -28.46875l3.921875 0z" fill-rule="nonzero"/><path fill="#ffffff" d="m183.79164 376.298q5.296875 0 8.1875 2.21875q2.890625 2.203125 2.890625 6.578125q0 4.671875 -3.015625 6.953125q-3.015625 2.265625 -8.015625 2.265625l-3.59375 0l0 10.453125l-3.921875 0l0 -28.46875l7.46875 0zm-0.125 14.90625q3.4375 0 5.234375 -1.3125q1.796875 -1.328125 1.796875 -4.75q0 -3.0625 -1.796875 -4.421875q-1.796875 -1.375 -5.140625 -1.375l-3.515625 0l0 11.859375l3.421875 0zm25.011673 1.5l-4.421875 0l0 12.0625l-3.921875 0l0 -28.46875l7.46875 0q5.328125 0 8.078125 2.03125q2.75 2.015625 2.75 6.015625q0 2.984375 -1.53125 4.84375q-1.515625 1.859375 -4.625 2.8125l7.6875 12.765625l-4.671875 0l-6.8125 -12.0625zm-0.453125 -3.015625q3.09375 0 4.65625 -1.265625q1.578125 -1.265625 1.578125 -4.078125q0 -2.640625 -1.59375 -3.8125q-1.59375 -1.1875 -5.09375 -1.1875l-3.515625 0l0 10.34375l3.96875 0zm26.897186 -13.890625q3.59375 0 6.296875 1.71875q2.71875 1.703125 4.21875 5.015625q1.515625 3.3125 1.515625 8.015625q0 4.625 -1.515625 7.9375q-1.5 3.3125 -4.21875 5.046875q-2.703125 1.734375 -6.296875 1.734375q-3.59375 0 -6.296875 -1.6875q-2.703125 -1.703125 -4.21875 -5.0q-1.515625 -3.3125 -1.515625 -7.984375q0 -4.59375 1.515625 -7.9375q1.515625 -3.34375 4.234375 -5.09375q2.734375 -1.765625 6.28125 -1.765625zm0 3.21875q-3.71875 0 -5.78125 2.8125q-2.0625 2.8125 -2.0625 8.765625q0 5.90625 2.078125 8.671875q2.09375 2.765625 5.765625 2.765625q7.859375 0 7.859375 -11.484375q0 -11.53125 -7.859375 -11.53125zm28.395966 -3.21875q2.5625 0 4.3125 0.65625q1.765625 0.65625 3.578125 2.15625l-2.140625 2.515625q-2.609375 -2.109375 -5.5 -2.109375q-3.5625 0 -5.734375 2.734375q-2.1562347 2.71875 -2.1562347 8.75q0 5.875 2.1406097 8.671875q2.15625 2.78125 5.703125 2.78125q1.828125 0 3.1875 -0.609375q1.359375 -0.625 2.890625 -1.75l1.9375 2.484375q-1.3125 1.359375 -3.390625 2.28125q-2.0625 0.90625 -4.75 0.90625q-3.46875 0 -6.171875 -1.71875q-2.7031097 -1.71875 -4.2187347 -5.046875q-1.515625 -3.328125 -1.515625 -8.0q0 -4.65625 1.5625 -7.984375q1.578125 -3.328125 4.2656097 -5.015625q2.6875 -1.703125 6.0 -1.703125zm28.596924 0.5l-0.453125 3.140625l-11.03125 0l0 9.296875l9.578125 0l0 3.140625l-9.578125 0l0 9.75l11.8125 0l0 3.140625l-15.734375 0l0 -28.46875l15.40625 0zm13.30661 -0.5q2.859375 0 4.875 0.8125q2.03125 0.796875 3.9375 2.484375l-2.15625 2.40625q-1.609375 -1.28125 -3.171875 -1.875q-1.546875 -0.609375 -3.3125 -0.609375q-2.234375 0 -3.6875 1.03125q-1.4375 1.03125 -1.4375 3.015625q0 1.25 0.484375 2.09375q0.5 0.84375 1.84375 1.546875q1.34375 0.703125 3.90625 1.484375q2.6875 0.828125 4.46875 1.78125q1.78125 0.953125 2.875 2.625q1.09375 1.671875 1.09375 4.234375q0 2.484375 -1.21875 4.390625q-1.21875 1.890625 -3.515625 2.96875q-2.296875 1.078125 -5.4375 1.078125q-5.90625 0 -9.671875 -3.6875l2.15625 -2.390625q1.734375 1.40625 3.5 2.125q1.78125 0.71875 3.96875 0.71875q2.65625 0 4.390625 -1.296875q1.734375 -1.296875 1.734375 -3.78125q0 -1.40625 -0.546875 -2.328125q-0.53125 -0.9375 -1.84375 -1.671875q-1.296875 -0.75 -3.765625 -1.5q-4.390625 -1.3125 -6.421875 -3.171875q-2.015625 -1.859375 -2.015625 -5.046875q0 -2.15625 1.140625 -3.84375q1.140625 -1.6875 3.1875 -2.640625q2.046875 -0.953125 4.640625 -0.953125zm22.027863 0q2.859375 0 4.875 0.8125q2.03125 0.796875 3.9375 2.484375l-2.15625 2.40625q-1.609375 -1.28125 -3.171875 -1.875q-1.546875 -0.609375 -3.3125 -0.609375q-2.234375 0 -3.6875 1.03125q-1.4375 1.03125 -1.4375 3.015625q0 1.25 0.484375 2.09375q0.5 0.84375 1.84375 1.546875q1.34375 0.703125 3.90625 1.484375q2.6875 0.828125 4.46875 1.78125q1.78125 0.953125 2.875 2.625q1.09375 1.671875 1.09375 4.234375q0 2.484375 -1.21875 4.390625q-1.21875 1.890625 -3.515625 2.96875q-2.296875 1.078125 -5.4375 1.078125q-5.90625 0 -9.671875 -3.6875l2.15625 -2.390625q1.734375 1.40625 3.5 2.125q1.78125 0.71875 3.96875 0.71875q2.65625 0 4.390625 -1.296875q1.734375 -1.296875 1.734375 -3.78125q0 -1.40625 -0.546875 -2.328125q-0.53125 -0.9375 -1.84375 -1.671875q-1.296875 -0.75 -3.765625 -1.5q-4.390625 -1.3125 -6.421875 -3.171875q-2.015625 -1.859375 -2.015625 -5.046875q0 -2.15625 1.140625 -3.84375q1.140625 -1.6875 3.1875 -2.640625q2.046875 -0.953125 4.640625 -0.953125zm19.430115 0.5l0 28.46875l-3.921875 0l0 -28.46875l3.921875 0zm28.223083 28.46875l-5.25 0l-11.5625 -24.171875q0.234375 2.84375 0.375 5.265625q0.15625 2.421875 0.15625 5.84375l0 13.0625l-3.671875 0l0 -28.46875l5.109375 0l11.703125 24.21875q-0.125 -1.078125 -0.328125 -3.765625q-0.203125 -2.6875 -0.203125 -4.921875l0 -15.53125l3.671875 0l0 28.46875zm18.758392 -28.96875q2.6875 0 4.65625 0.765625q1.96875 0.765625 3.90625 2.375l-2.3125 2.390625q-1.53125 -1.234375 -2.9375 -1.765625q-1.40625 -0.546875 -3.3125 -0.546875q-2.1875 0 -4.03125 1.1875q-1.828125 1.171875 -2.984375 3.765625q-1.15625 2.578125 -1.15625 6.53125q0 6.0 1.953125 8.765625q1.96875 2.765625 5.8125 2.765625q3.140625 0 5.40625 -1.28125l0 -8.59375l-5.03125 0l-0.453125 -3.171875l9.375 0l0 13.75q-4.421875 2.53125 -9.296875 2.53125q-5.625 0 -8.796875 -3.765625q-3.15625 -3.765625 -3.15625 -11.0q0 -4.625 1.671875 -7.953125q1.6875 -3.328125 4.515625 -5.03125q2.828125 -1.71875 6.171875 -1.71875z" fill-rule="nonzero"/><path fill="#c27ba0" d="m471.16544 362.66232l0 0c0 -100.95938 81.84378 -182.80315 182.80313 -182.80315l0 0c48.48242 0 94.979126 19.259567 129.26135 53.54181c34.282227 34.28224 53.54181 80.778946 53.54181 129.26134l0 0c0 100.95941 -81.84375 182.80313 -182.80316 182.80313l0 0c-100.95935 0 -182.80313 -81.84372 -182.80313 -182.80313z" fill-rule="evenodd"/><path fill="#ffffff" d="m597.1983 352.6223l-3.921875 0l-1.03125 -13.265625q-0.640625 -7.8125 -0.71875 -11.984375l-6.359375 21.921875l-3.796875 0l-6.703125 -21.96875q0 5.328125 -0.546875 12.328125l-0.984375 12.96875l-3.84375 0l2.4375 -29.390625l5.453125 0l6.1875 21.375l5.890625 -21.375l5.5 0l2.4375 29.390625zm22.561523 0l-2.21875 -7.375l-11.140625 0l-2.21875 7.375l-4.09375 0l9.4375 -29.390625l5.109375 0l9.390625 29.390625l-4.265625 0zm-12.375 -10.65625l9.171875 0l-4.5625 -15.359375l-4.609375 15.359375zm31.01532 -19.25q2.640625 0 4.453125 0.6875q1.8125 0.6875 3.6875 2.21875l-2.21875 2.59375q-2.6875 -2.171875 -5.671875 -2.171875q-3.65625 0 -5.90625 2.828125q-2.234375 2.8125 -2.234375 9.03125q0 6.0625 2.21875 8.9375q2.21875 2.875 5.890625 2.875q1.875 0 3.28125 -0.640625q1.40625 -0.640625 2.984375 -1.78125l2.0 2.5625q-1.359375 1.40625 -3.5 2.34375q-2.125 0.9375 -4.90625 0.9375q-3.578125 0 -6.375 -1.765625q-2.796875 -1.78125 -4.359375 -5.203125q-1.546875 -3.4375 -1.546875 -8.265625q0 -4.8125 1.625 -8.25q1.625 -3.4375 4.390625 -5.1875q2.78125 -1.75 6.1875 -1.75zm30.028076 29.90625l0 -13.78125l-12.375 0l0 13.78125l-4.046875 0l0 -29.390625l4.046875 0l0 12.28125l12.375 0l0 -12.28125l4.046875 0l0 29.390625l-4.046875 0zm16.631226 -29.390625l0 29.390625l-4.046875 0l0 -29.390625l4.046875 0zm29.146057 29.390625l-5.421875 0l-11.953125 -24.953125q0.265625 2.9375 0.40625 5.4375q0.15625 2.5 0.15625 6.03125l0 13.484375l-3.796875 0l0 -29.390625l5.296875 0l12.0625 25.0q-0.125 -1.109375 -0.34375 -3.875q-0.203125 -2.78125 -0.203125 -5.078125l0 -16.046875l3.796875 0l0 29.390625zm24.43103 -29.390625l-0.46875 3.25l-11.390625 0l0 9.59375l9.90625 0l0 3.234375l-9.90625 0l0 10.078125l12.203125 0l0 3.234375l-16.25 0l0 -29.390625l15.90625 0z" fill-rule="nonzero"/><path fill="#ffffff" d="m566.24066 374.2317l0 25.84375l12.078125 0l-0.46875 3.546875l-15.65625 0l0 -29.390625l4.046875 0zm33.102173 0l-0.46875 3.25l-11.390625 0l0 9.59375l9.90625 0l0 3.234375l-9.90625 0l0 10.078125l12.203125 0l0 3.234375l-16.25 0l0 -29.390625l15.90625 0zm22.571045 29.390625l-2.21875 -7.375l-11.140625 0l-2.21875 7.375l-4.09375 0l9.4375 -29.390625l5.109375 0l9.390625 29.390625l-4.265625 0zm-12.375 -10.65625l9.171875 0l-4.5625 -15.359375l-4.609375 15.359375zm29.770142 -1.796875l-4.5625 0l0 12.453125l-4.046875 0l0 -29.390625l7.71875 0q5.5 0 8.328125 2.09375q2.84375 2.09375 2.84375 6.21875q0 3.078125 -1.578125 5.0q-1.578125 1.921875 -4.765625 2.890625l7.921875 13.1875l-4.8125 0l-7.046875 -12.453125zm-0.46875 -3.109375q3.203125 0 4.828125 -1.296875q1.625 -1.3125 1.625 -4.21875q0 -2.71875 -1.65625 -3.9375q-1.640625 -1.21875 -5.265625 -1.21875l-3.625 0l0 10.671875l4.09375 0zm38.275757 15.5625l-5.421875 0l-11.953125 -24.953125q0.265625 2.9375 0.40625 5.4375q0.15625 2.5 0.15625 6.03125l0 13.484375l-3.796875 0l0 -29.390625l5.296875 0l12.0625 25.0q-0.125 -1.109375 -0.34375 -3.875q-0.203125 -2.78125 -0.203125 -5.078125l0 -16.046875l3.796875 0l0 29.390625zm12.571655 -29.390625l0 29.390625l-4.046875 0l0 -29.390625l4.046875 0zm29.146057 29.390625l-5.421875 0l-11.953125 -24.953125q0.265625 2.9375 0.40625 5.4375q0.15625 2.5 0.15625 6.03125l0 13.484375l-3.796875 0l0 -29.390625l5.296875 0l12.0625 25.0q-0.125 -1.109375 -0.34375 -3.875q-0.203125 -2.78125 -0.203125 -5.078125l0 -16.046875l3.796875 0l0 29.390625zm19.352905 -29.90625q2.78125 0 4.796875 0.796875q2.03125 0.78125 4.046875 2.453125l-2.390625 2.46875q-1.578125 -1.28125 -3.03125 -1.828125q-1.453125 -0.5625 -3.421875 -0.5625q-2.25 0 -4.15625 1.21875q-1.890625 1.21875 -3.09375 3.890625q-1.1875 2.65625 -1.1875 6.75q0 6.1875 2.015625 9.046875q2.03125 2.859375 6.0 2.859375q3.25 0 5.59375 -1.328125l0 -8.875l-5.203125 0l-0.46875 -3.28125l9.671875 0l0 14.203125q-4.5625 2.609375 -9.59375 2.609375q-5.796875 0 -9.0625 -3.875q-3.265625 -3.890625 -3.265625 -11.359375q0 -4.78125 1.71875 -8.203125q1.734375 -3.4375 4.65625 -5.203125q2.921875 -1.78125 6.375 -1.78125z" fill-rule="nonzero"/><path fill="#93c47d" d="m368.60062 584.13684l0 0c0 -57.37671 46.51303 -103.88974 103.88974 -103.88974l0 0c27.553284 0 53.978027 10.945496 73.46118 30.42862c19.483093 19.483093 30.428589 45.907898 30.428589 73.46112l0 0c0 57.37677 -46.513 103.88977 -103.88977 103.88977l0 0c-57.37671 0 -103.88974 -46.513 -103.88974 -103.88977z" fill-rule="evenodd"/><path fill="#ffffff" d="m426.87357 574.59375l-0.328125 2.21875l-7.828125 0l0 6.609375l6.796875 0l0 2.21875l-6.796875 0l0 6.921875l8.390625 0l0 2.234375l-11.171875 0l0 -20.203125l10.9375 0zm11.4635315 -0.359375q1.8125 0 3.0625 0.46875q1.25 0.46875 2.546875 1.53125l-1.53125 1.78125q-1.84375 -1.484375 -3.90625 -1.484375q-2.515625 0 -4.0625 1.9375q-1.53125 1.921875 -1.53125 6.203125q0 4.171875 1.515625 6.15625q1.53125 1.96875 4.046875 1.96875q1.296875 0 2.265625 -0.4375q0.96875 -0.4375 2.046875 -1.234375l1.390625 1.765625q-0.9375 0.96875 -2.40625 1.625q-1.46875 0.640625 -3.375 0.640625q-2.46875 0 -4.390625 -1.21875q-1.921875 -1.21875 -3.0 -3.578125q-1.0625 -2.359375 -1.0625 -5.6875q0 -3.3125 1.109375 -5.671875q1.125 -2.359375 3.03125 -3.5625q1.90625 -1.203125 4.25 -1.203125zm15.977692 0q2.5625 0 4.484375 1.21875q1.921875 1.21875 2.984375 3.5625q1.078125 2.34375 1.078125 5.6875q0 3.296875 -1.078125 5.640625q-1.0625 2.34375 -2.984375 3.578125q-1.921875 1.234375 -4.484375 1.234375q-2.546875 0 -4.46875 -1.203125q-1.921875 -1.203125 -3.0 -3.546875q-1.0625 -2.359375 -1.0625 -5.671875q0 -3.25 1.0625 -5.625q1.078125 -2.375 3.015625 -3.625q1.9375 -1.25 4.453125 -1.25zm0 2.296875q-2.625 0 -4.09375 2.0q-1.46875 1.984375 -1.46875 6.203125q0 4.203125 1.46875 6.171875q1.484375 1.953125 4.09375 1.953125q5.578125 0 5.578125 -8.15625q0 -8.171875 -5.578125 -8.171875zm15.873169 -1.9375l0 17.765625l8.296875 0l-0.3125 2.4375l-10.765625 0l0 -20.203125l2.78125 0zm17.707275 -0.359375q2.5625 0 4.484375 1.21875q1.921875 1.21875 2.984375 3.5625q1.078125 2.34375 1.078125 5.6875q0 3.296875 -1.078125 5.640625q-1.0625 2.34375 -2.984375 3.578125q-1.921875 1.234375 -4.484375 1.234375q-2.546875 0 -4.46875 -1.203125q-1.921875 -1.203125 -3.0 -3.546875q-1.0625 -2.359375 -1.0625 -5.671875q0 -3.25 1.0625 -5.625q1.078125 -2.375 3.015625 -3.625q1.9375 -1.25 4.453125 -1.25zm0 2.296875q-2.625 0 -4.09375 2.0q-1.46875 1.984375 -1.46875 6.203125q0 4.203125 1.46875 6.171875q1.484375 1.953125 4.09375 1.953125q5.578125 0 5.578125 -8.15625q0 -8.171875 -5.578125 -8.171875zm20.529419 -2.296875q1.90625 0 3.296875 0.546875q1.4062195 0.546875 2.7812195 1.6875l-1.640625 1.703125q-1.0937195 -0.890625 -2.0937195 -1.265625q-0.984375 -0.375 -2.34375 -0.375q-1.546875 0 -2.859375 0.84375q-1.296875 0.828125 -2.125 2.65625q-0.8125 1.828125 -0.8125 4.640625q0 4.265625 1.390625 6.234375q1.390625 1.953125 4.125 1.953125q2.21875 0 3.84375 -0.90625l0 -6.09375l-3.578125 0l-0.328125 -2.265625l6.6562195 0l0 9.765625q-3.1405945 1.796875 -6.5937195 1.796875q-4.0 0 -6.25 -2.671875q-2.234375 -2.671875 -2.234375 -7.8125q0 -3.28125 1.1875 -5.640625q1.1875 -2.359375 3.1875 -3.578125q2.015625 -1.21875 4.390625 -1.21875zm23.411407 0.359375l-6.515625 12.4375l0 7.765625l-2.8125 0l0 -7.75l-6.515625 -12.453125l3.078125 0l4.9375 10.0l4.921875 -10.0l2.90625 0z" fill-rule="nonzero"/><path fill="#e69138" d="m362.34573 139.08977l0 0c0 -59.159706 47.958435 -107.11812 107.11813 -107.11812l0 0c28.409485 0 55.655396 11.285627 75.74396 31.374166c20.088501 20.088547 31.374146 47.334457 31.374146 75.74395l0 0c0 59.1597 -47.958435 107.1181 -107.1181 107.1181l0 0c-59.1597 0 -107.11813 -47.958405 -107.11813 -107.1181z" fill-rule="evenodd"/><path fill="#ffffff" d="m414.42953 130.65976q1.5625 0 2.640625 0.40625q1.078125 0.40625 2.1875 1.3125l-1.3125 1.546875q-1.59375 -1.296875 -3.375 -1.296875q-2.171875 0 -3.5 1.671875q-1.328125 1.671875 -1.328125 5.375q0 3.59375 1.3125 5.3125q1.3125 1.703125 3.5 1.703125q1.109375 0 1.9375 -0.375q0.84375 -0.390625 1.78125 -1.078125l1.1875 1.53125q-0.8125 0.828125 -2.078125 1.390625q-1.265625 0.546875 -2.90625 0.546875q-2.125 0 -3.796875 -1.046875q-1.65625 -1.046875 -2.578125 -3.078125q-0.921875 -2.046875 -0.921875 -4.90625q0 -2.859375 0.953125 -4.890625q0.96875 -2.046875 2.609375 -3.078125q1.65625 -1.046875 3.6875 -1.046875zm13.802124 0q2.203125 0 3.859375 1.046875q1.65625 1.046875 2.578125 3.078125q0.9375 2.03125 0.9375 4.90625q0 2.84375 -0.9375 4.875q-0.921875 2.015625 -2.578125 3.078125q-1.65625 1.0625 -3.859375 1.0625q-2.203125 0 -3.875 -1.03125q-1.65625 -1.03125 -2.578125 -3.0625q-0.921875 -2.03125 -0.921875 -4.890625q0 -2.8125 0.921875 -4.859375q0.921875 -2.0625 2.59375 -3.125q1.671875 -1.078125 3.859375 -1.078125zm0 1.96875q-2.28125 0 -3.546875 1.734375q-1.265625 1.71875 -1.265625 5.359375q0 3.625 1.28125 5.328125q1.28125 1.6875 3.53125 1.6875q4.8125 0 4.8125 -7.046875q0 -7.0625 -4.8125 -7.0625zm17.730194 -1.96875q1.640625 0 2.84375 0.46875q1.203125 0.46875 2.390625 1.453125l-1.40625 1.46875q-0.9375 -0.765625 -1.8125 -1.09375q-0.859375 -0.328125 -2.015625 -0.328125q-1.34375 0 -2.46875 0.734375q-1.125 0.71875 -1.84375 2.296875q-0.703125 1.578125 -0.703125 4.015625q0 3.671875 1.203125 5.375q1.203125 1.6875 3.5625 1.6875q1.921875 0 3.3125 -0.78125l0 -5.265625l-3.09375 0l-0.28125 -1.953125l5.75 0l0 8.4375q-2.703125 1.53125 -5.6875 1.53125q-3.453125 0 -5.390625 -2.296875q-1.9375 -2.3125 -1.9375 -6.734375q0 -2.84375 1.015625 -4.875q1.03125 -2.046875 2.765625 -3.09375q1.75 -1.046875 3.796875 -1.046875zm21.778961 17.75l-3.21875 0l-7.09375 -14.8125q0.15625 1.75 0.234375 3.234375q0.09375 1.46875 0.09375 3.578125l0 8.0l-2.25 0l0 -17.453125l3.140625 0l7.171875 14.84375q-0.078125 -0.65625 -0.203125 -2.296875q-0.125 -1.65625 -0.125 -3.015625l0 -9.53125l2.25 0l0 17.453125zm7.4710083 -17.453125l0 17.453125l-2.40625 0l0 -17.453125l2.40625 0zm15.378052 0l-0.25 2.046875l-4.84375 0l0 15.40625l-2.40625 0l0 -15.40625l-4.96875 0l0 -2.046875l12.46875 0zm5.1884155 0l0 17.453125l-2.40625 0l0 -17.453125l2.40625 0zm11.299927 -0.296875q2.203125 0 3.859375 1.046875q1.6562195 1.046875 2.5780945 3.078125q0.9375 2.03125 0.9375 4.90625q0 2.84375 -0.9375 4.875q-0.921875 2.015625 -2.5780945 3.078125q-1.65625 1.0625 -3.859375 1.0625q-2.203125 0 -3.875 -1.03125q-1.65625 -1.03125 -2.578125 -3.0625q-0.921875 -2.03125 -0.921875 -4.890625q0 -2.8125 0.921875 -4.859375q0.921875 -2.0625 2.59375 -3.125q1.671875 -1.078125 3.859375 -1.078125zm0 1.96875q-2.28125 0 -3.546875 1.734375q-1.265625 1.71875 -1.265625 5.359375q0 3.625 1.28125 5.328125q1.28125 1.6875 3.53125 1.6875q4.8125 0 4.8125 -7.046875q0 -7.0625 -4.8125 -7.0625zm23.52707 15.78125l-3.21875 0l-7.09375 -14.8125q0.15625 1.75 0.234375 3.234375q0.09375 1.46875 0.09375 3.578125l0 8.0l-2.25 0l0 -17.453125l3.140625 0l7.171875 14.84375q-0.078125 -0.65625 -0.203125 -2.296875q-0.125 -1.65625 -0.125 -3.015625l0 -9.53125l2.25 0l0 17.453125z" fill-rule="nonzero"/></g></svg>