<?xml version="1.0" encoding="UTF-8" standalone="no"?>
<!DOCTYPE svg PUBLIC "-//W3C//DTD SVG 1.1//EN" "http://www.w3.org/Graphics/SVG/1.1/DTD/svg11.dtd">
<svg width="100%" height="100%" viewBox="0 0 731 657" version="1.1" xmlns="http://www.w3.org/2000/svg" xmlns:xlink="http://www.w3.org/1999/xlink" xml:space="preserve" xmlns:serif="http://www.serif.com/" style="fill-rule:evenodd;clip-rule:evenodd;stroke-linejoin:round;stroke-miterlimit:2;">
    <g transform="matrix(1,0,0,1,-105.945,-31.9716)">
        <path d="M105.945,365.087C105.945,264.127 187.789,182.284 288.748,182.284C337.231,182.284 383.727,201.543 418.01,235.825C452.292,270.108 471.552,316.604 471.552,365.087C471.552,466.046 389.708,547.89 288.748,547.89C187.789,547.89 105.945,466.046 105.945,365.087L105.945,365.087Z" style="fill:rgb(111,168,220);"/>
        <path d="M471.165,362.662C471.165,261.703 553.009,179.859 653.969,179.859C702.451,179.859 748.948,199.119 783.23,233.401C817.512,267.683 836.772,314.18 836.772,362.662C836.772,463.622 754.928,545.465 653.969,545.465C553.009,545.465 471.165,463.622 471.165,362.662Z" style="fill:rgb(194,123,160);"/>
        <path d="M368.601,584.137C368.601,526.76 415.114,480.247 472.49,480.247C500.044,480.247 526.468,491.193 545.952,510.676C565.435,530.159 576.38,556.584 576.38,584.137C576.38,641.514 529.867,688.027 472.49,688.027C415.114,688.027 368.601,641.514 368.601,584.137L368.601,584.137Z" style="fill:rgb(211,211,211);"/>
        <path d="M362.346,139.09C362.346,79.93 410.304,31.972 469.464,31.972C497.873,31.972 525.119,43.257 545.208,63.346C565.296,83.434 576.582,110.68 576.582,139.09C576.582,198.249 528.624,246.208 469.464,246.208C410.304,246.208 362.346,198.249 362.346,139.09L362.346,139.09Z" style="fill:rgb(230,145,56);"/>
        <g transform="matrix(0.719891,0,0,0.719891,256.352,-200.53)">
            <text x="171.423px" y="492.876px" style="font-family:'DINCondensed-Bold', 'DIN Condensed';font-weight:700;font-stretch:condensed;font-size:74.274px;fill:white;">COGNITION</text>
        </g>
        <g transform="matrix(0.719891,0,0,0.719891,272.684,249.555)">
            <text x="171.423px" y="492.876px" style="font-family:'DINCondensed-Bold', 'DIN Condensed';font-weight:700;font-stretch:condensed;font-size:74.274px;fill:white;">ECOLOGY</text>
        </g>
        <g transform="matrix(0.812323,0,0,0.812323,29.1213,-49.1297)">
            <text x="233.256px" y="492.876px" style="font-family:'DINCondensed-Bold', 'DIN Condensed';font-weight:700;font-stretch:condensed;font-size:74.274px;fill:white;">SIGNAL</text>
            <text x="171.423px" y="582.004px" style="font-family:'DINCondensed-Bold', 'DIN Condensed';font-weight:700;font-stretch:condensed;font-size:74.274px;fill:white;">PROCESSING</text>
        </g>
        <g transform="matrix(0.812323,0,0,0.812323,396.616,-52.5855)">
            <text x="212.571px" y="492.876px" style="font-family:'DINCondensed-Bold', 'DIN Condensed';font-weight:700;font-stretch:condensed;font-size:74.274px;fill:white;">MACHINE</text>
            <text x="202.284px" y="582.004px" style="font-family:'DINCondensed-Bold', 'DIN Condensed';font-weight:700;font-stretch:condensed;font-size:74.274px;fill:white;">LEARNING</text>
        </g>
    </g>
</svg>
