<?xml version="1.0" encoding="UTF-8" standalone="no"?>
<!DOCTYPE svg PUBLIC "-//W3C//DTD SVG 1.1//EN" "http://www.w3.org/Graphics/SVG/1.1/DTD/svg11.dtd">
<svg width="100%" height="100%" viewBox="0 0 1024 600" version="1.1" xmlns="http://www.w3.org/2000/svg" xmlns:xlink="http://www.w3.org/1999/xlink" xml:space="preserve" xmlns:serif="http://www.serif.com/" style="fill-rule:evenodd;clip-rule:evenodd;stroke-linecap:round;stroke-linejoin:round;stroke-miterlimit:1.5;">
    <g transform="matrix(1,0,0,1,-98.8663,6.9799)">
        <g transform="matrix(1,0,0,1,867.051,117.756)">
            <text x="0px" y="0px" style="font-family:'LucidaGrande', 'Lucida Grande', sans-serif;font-weight:500;font-size:27.536px;">Subitizing</text>
        </g>
        <g transform="matrix(1,0,0,1,839.7,182.077)">
            <text x="0px" y="0px" style="font-family:'ArialMT', 'Arial', sans-serif;font-size:12px;">1</text>
        </g>
        <g transform="matrix(1,0,0,1,705.739,-98.6672)">
            <circle cx="127.434" cy="276.624" r="27.434" style="fill:rgb(148,148,148);"/>
        </g>
        <g transform="matrix(1,0,0,1,706.739,39.3325)">
            <circle cx="127.434" cy="276.624" r="27.434" style="fill:rgb(148,148,148);"/>
        </g>
        <g transform="matrix(1,0,0,1,706.739,103.332)">
            <circle cx="127.434" cy="276.624" r="27.434" style="fill:rgb(148,148,148);"/>
        </g>
        <g transform="matrix(0.432381,0,0,0.432381,760.583,329.054)">
            <circle cx="127.434" cy="276.624" r="27.434" style="fill:rgb(148,148,148);"/>
        </g>
        <g transform="matrix(0.432381,0,0,0.432381,827.635,328.624)">
            <circle cx="127.434" cy="276.624" r="27.434" style="fill:rgb(148,148,148);"/>
        </g>
        <g transform="matrix(0.432381,0,0,0.432381,897.043,328.624)">
            <circle cx="127.434" cy="276.624" r="27.434" style="fill:rgb(148,148,148);"/>
        </g>
        <g transform="matrix(0.432381,0,0,0.432381,966.451,328.019)">
            <circle cx="127.434" cy="276.624" r="27.434" style="fill:rgb(148,148,148);"/>
        </g>
        <g transform="matrix(1,0,0,1,-2.41855,22.4568)">
            <path d="M936.026,127.045L936.026,384.979" style="fill:none;stroke:black;stroke-width:3.5px;"/>
        </g>
        <g transform="matrix(1,0,0,1,-2.41855,22.4568)">
            <path d="M802.158,256.5L1072.03,256.5" style="fill:none;stroke:black;stroke-width:3.5px;"/>
        </g>
        <g transform="matrix(1,0,0,1,769.739,-34.6675)">
            <circle cx="127.434" cy="276.624" r="27.434" style="fill:rgb(148,148,148);"/>
        </g>
        <g transform="matrix(1,0,0,1,844.739,-34.6675)">
            <circle cx="127.434" cy="276.624" r="27.434" style="fill:rgb(148,148,148);"/>
        </g>
        <g transform="matrix(1,0,0,1,844.739,103.332)">
            <circle cx="127.434" cy="276.624" r="27.434" style="fill:rgb(148,148,148);"/>
        </g>
        <g transform="matrix(1,0,0,1,770.739,39.3325)">
            <circle cx="127.434" cy="276.624" r="27.434" style="fill:rgb(148,148,148);"/>
        </g>
        <g transform="matrix(1,0,0,1,844.739,-98.6672)">
            <circle cx="127.434" cy="276.624" r="27.434" style="fill:rgb(148,148,148);"/>
        </g>
        <g transform="matrix(1,0,0,1,908.739,39.3325)">
            <circle cx="127.434" cy="276.624" r="27.434" style="fill:rgb(148,148,148);"/>
        </g>
        <g transform="matrix(1,0,0,1,684.423,-108.498)">
            <path d="M212.75,256L219.934,278.111L243.184,278.111L224.375,291.777L231.559,313.889L212.75,300.223L193.941,313.889L201.125,291.777L182.316,278.111L205.566,278.111L212.75,256Z" style="fill:rgb(253,162,42);"/>
        </g>
        <g transform="matrix(1,0,0,1,826.423,-108.498)">
            <path d="M212.75,256L219.934,278.111L243.184,278.111L224.375,291.777L231.559,313.889L212.75,300.223L193.941,313.889L201.125,291.777L182.316,278.111L205.566,278.111L212.75,256Z" style="fill:rgb(253,162,42);"/>
        </g>
        <g transform="matrix(1,0,0,1,826.423,-44.4979)">
            <path d="M212.75,256L219.934,278.111L243.184,278.111L224.375,291.777L231.559,313.889L212.75,300.223L193.941,313.889L201.125,291.777L182.316,278.111L205.566,278.111L212.75,256Z" style="fill:rgb(253,162,42);"/>
        </g>
        <g transform="matrix(1,0,0,1,617.423,-44.4979)">
            <path d="M212.75,256L219.934,278.111L243.184,278.111L224.375,291.777L231.559,313.889L212.75,300.223L193.941,313.889L201.125,291.777L182.316,278.111L205.566,278.111L212.75,256Z" style="fill:rgb(253,162,42);"/>
        </g>
        <g transform="matrix(1,0,0,1,762.423,30.1655)">
            <path d="M212.75,256L219.934,278.111L243.184,278.111L224.375,291.777L231.559,313.889L212.75,300.223L193.941,313.889L201.125,291.777L182.316,278.111L205.566,278.111L212.75,256Z" style="fill:rgb(253,162,42);"/>
        </g>
        <g transform="matrix(1,0,0,1,826.423,95.0125)">
            <path d="M212.75,256L219.934,278.111L243.184,278.111L224.375,291.777L231.559,313.889L212.75,300.223L193.941,313.889L201.125,291.777L182.316,278.111L205.566,278.111L212.75,256Z" style="fill:rgb(253,162,42);"/>
        </g>
        <g transform="matrix(1,0,0,1,685.423,95.5229)">
            <path d="M212.75,256L219.934,278.111L243.184,278.111L224.375,291.777L231.559,313.889L212.75,300.223L193.941,313.889L201.125,291.777L182.316,278.111L205.566,278.111L212.75,256Z" style="fill:rgb(253,162,42);"/>
        </g>
        <g transform="matrix(0.440104,0,0,0.415365,721.657,368.454)">
            <path d="M212.75,256L219.934,278.111L243.184,278.111L224.375,291.777L231.559,313.889L212.75,300.223L193.941,313.889L201.125,291.777L182.316,278.111L205.566,278.111L212.75,256Z" style="fill:rgb(253,162,42);"/>
        </g>
        <g transform="matrix(0.440104,0,0,0.415365,789.635,368.454)">
            <path d="M212.75,256L219.934,278.111L243.184,278.111L224.375,291.777L231.559,313.889L212.75,300.223L193.941,313.889L201.125,291.777L182.316,278.111L205.566,278.111L212.75,256Z" style="fill:rgb(253,162,42);"/>
        </g>
        <g transform="matrix(0.440104,0,0,0.415365,858.511,368.454)">
            <path d="M212.75,256L219.934,278.111L243.184,278.111L224.375,291.777L231.559,313.889L212.75,300.223L193.941,313.889L201.125,291.777L182.316,278.111L205.566,278.111L212.75,256Z" style="fill:rgb(253,162,42);"/>
        </g>
        <g transform="matrix(0.440104,0,0,0.415365,927.919,368.454)">
            <path d="M212.75,256L219.934,278.111L243.184,278.111L224.375,291.777L231.559,313.889L212.75,300.223L193.941,313.889L201.125,291.777L182.316,278.111L205.566,278.111L212.75,256Z" style="fill:rgb(253,162,42);"/>
        </g>
        <g transform="matrix(1,0,0,1,838.051,460.453)">
            <text x="0px" y="0px" style="font-family:'LucidaGrande', 'Lucida Grande', sans-serif;font-weight:500;font-size:36px;">2</text>
        </g>
        <g transform="matrix(1,0,0,1,838.051,499.231)">
            <text x="0px" y="0px" style="font-family:'LucidaGrande', 'Lucida Grande', sans-serif;font-weight:500;font-size:36px;">2</text>
        </g>
        <g transform="matrix(1,0,0,1,905.309,460.093)">
            <text x="0px" y="0px" style="font-family:'LucidaGrande', 'Lucida Grande', sans-serif;font-weight:500;font-size:36px;">2</text>
        </g>
        <g transform="matrix(1,0,0,1,905.309,499.231)">
            <text x="0px" y="0px" style="font-family:'LucidaGrande', 'Lucida Grande', sans-serif;font-weight:500;font-size:36px;">2</text>
        </g>
        <g transform="matrix(1,0,0,1,975.077,459.481)">
            <text x="0px" y="0px" style="font-family:'LucidaGrande', 'Lucida Grande', sans-serif;font-weight:500;font-size:36px;">3</text>
        </g>
        <g transform="matrix(1,0,0,1,975.077,498.4)">
            <text x="0px" y="0px" style="font-family:'LucidaGrande', 'Lucida Grande', sans-serif;font-weight:500;font-size:36px;">1</text>
        </g>
        <g transform="matrix(1,0,0,1,1046.82,459.301)">
            <text x="0px" y="0px" style="font-family:'LucidaGrande', 'Lucida Grande', sans-serif;font-weight:500;font-size:36px;">2</text>
        </g>
        <g transform="matrix(1,0,0,1,1046.82,498.4)">
            <text x="0px" y="0px" style="font-family:'LucidaGrande', 'Lucida Grande', sans-serif;font-weight:500;font-size:36px;">2</text>
        </g>
        <g transform="matrix(1,0,0,1,256.694,275.774)">
            <g transform="matrix(1,0,0,1,-129.5,-181.5)">
                <g transform="matrix(1,0,0,1,-434.645,-76.5886)">
                    <g transform="matrix(1,0,0,1,362.97,6.97375)">
                        <g transform="matrix(1,0,0,1,92.814,91.093)">
                            <text x="0px" y="0px" style="font-family:'LucidaGrande', 'Lucida Grande', sans-serif;font-weight:500;font-size:27.536px;">C</text>
                        </g>
                        <g transform="matrix(1,0,0,1,107.959,91.093)">
                            <text x="0px" y="0px" style="font-family:'LucidaGrande', 'Lucida Grande', sans-serif;font-weight:500;font-size:27.536px;">ount Estimation</text>
                        </g>
                    </g>
                    <g transform="matrix(1,0,0,1,468.606,157.574)">
                        <text x="0px" y="0px" style="font-family:'ArialMT', 'Arial', sans-serif;font-size:12px;">1</text>
                    </g>
                    <g transform="matrix(1,0,0,1,340.645,-118.17)">
                        <circle cx="127.434" cy="276.624" r="27.434" style="fill:rgb(148,148,148);"/>
                    </g>
                    <g transform="matrix(1,0,0,1,340.645,9.83035)">
                        <circle cx="127.434" cy="276.624" r="27.434" style="fill:rgb(148,148,148);"/>
                    </g>
                    <g transform="matrix(1,0,0,1,340.645,73.8304)">
                        <circle cx="127.434" cy="276.624" r="27.434" style="fill:rgb(148,148,148);"/>
                    </g>
                    <g transform="matrix(0.432381,0,0,0.432381,458.407,307.67)">
                        <circle cx="127.434" cy="276.624" r="27.434" style="fill:rgb(148,148,148);"/>
                    </g>
                    <g transform="matrix(1,0,0,1,404.645,-54.1696)">
                        <circle cx="127.434" cy="276.624" r="27.434" style="fill:rgb(148,148,148);"/>
                    </g>
                    <g transform="matrix(1,0,0,1,468.645,-54.1696)">
                        <circle cx="127.434" cy="276.624" r="27.434" style="fill:rgb(148,148,148);"/>
                    </g>
                    <g transform="matrix(1,0,0,1,468.645,73.8304)">
                        <circle cx="127.434" cy="276.624" r="27.434" style="fill:rgb(148,148,148);"/>
                    </g>
                    <g transform="matrix(1,0,0,1,404.645,9.83035)">
                        <circle cx="127.434" cy="276.624" r="27.434" style="fill:rgb(148,148,148);"/>
                    </g>
                    <g transform="matrix(1,0,0,1,468.645,-118.17)">
                        <circle cx="127.434" cy="276.624" r="27.434" style="fill:rgb(148,148,148);"/>
                    </g>
                    <g transform="matrix(1,0,0,1,532.645,9.83035)">
                        <circle cx="127.434" cy="276.624" r="27.434" style="fill:rgb(148,148,148);"/>
                    </g>
                    <g transform="matrix(1,0,0,1,319.329,-128)">
                        <path d="M212.75,256L219.934,278.111L243.184,278.111L224.375,291.777L231.559,313.889L212.75,300.223L193.941,313.889L201.125,291.777L182.316,278.111L205.566,278.111L212.75,256Z" style="fill:rgb(253,162,42);"/>
                    </g>
                    <g transform="matrix(1,0,0,1,450.329,-128)">
                        <path d="M212.75,256L219.934,278.111L243.184,278.111L224.375,291.777L231.559,313.889L212.75,300.223L193.941,313.889L201.125,291.777L182.316,278.111L205.566,278.111L212.75,256Z" style="fill:rgb(253,162,42);"/>
                    </g>
                    <g transform="matrix(1,0,0,1,450.329,-64)">
                        <path d="M212.75,256L219.934,278.111L243.184,278.111L224.375,291.777L231.559,313.889L212.75,300.223L193.941,313.889L201.125,291.777L182.316,278.111L205.566,278.111L212.75,256Z" style="fill:rgb(253,162,42);"/>
                    </g>
                    <g transform="matrix(1,0,0,1,252.329,-64)">
                        <path d="M212.75,256L219.934,278.111L243.184,278.111L224.375,291.777L231.559,313.889L212.75,300.223L193.941,313.889L201.125,291.777L182.316,278.111L205.566,278.111L212.75,256Z" style="fill:rgb(253,162,42);"/>
                    </g>
                    <g transform="matrix(1,0,0,1,386.329,0.663431)">
                        <path d="M212.75,256L219.934,278.111L243.184,278.111L224.375,291.777L231.559,313.889L212.75,300.223L193.941,313.889L201.125,291.777L182.316,278.111L205.566,278.111L212.75,256Z" style="fill:rgb(253,162,42);"/>
                    </g>
                    <g transform="matrix(1,0,0,1,450.329,65.5104)">
                        <path d="M212.75,256L219.934,278.111L243.184,278.111L224.375,291.777L231.559,313.889L212.75,300.223L193.941,313.889L201.125,291.777L182.316,278.111L205.566,278.111L212.75,256Z" style="fill:rgb(253,162,42);"/>
                    </g>
                    <g transform="matrix(1,0,0,1,319.329,66.0208)">
                        <path d="M212.75,256L219.934,278.111L243.184,278.111L224.375,291.777L231.559,313.889L212.75,300.223L193.941,313.889L201.125,291.777L182.316,278.111L205.566,278.111L212.75,256Z" style="fill:rgb(253,162,42);"/>
                    </g>
                    <g transform="matrix(0.440104,0,0,0.415365,516.487,308.761)">
                        <path d="M212.75,256L219.934,278.111L243.184,278.111L224.375,291.777L231.559,313.889L212.75,300.223L193.941,313.889L201.125,291.777L182.316,278.111L205.566,278.111L212.75,256Z" style="fill:rgb(253,162,42);"/>
                    </g>
                    <g transform="matrix(1,0,0,1,538.055,436.844)">
                        <text x="0px" y="0px" style="font-family:'LucidaGrande', 'Lucida Grande', sans-serif;font-weight:500;font-size:36px;">?</text>
                    </g>
                    <g transform="matrix(1,0,0,1,632.316,438.547)">
                        <text x="0px" y="0px" style="font-family:'LucidaGrande', 'Lucida Grande', sans-serif;font-weight:500;font-size:36px;">?</text>
                    </g>
                </g>
            </g>
        </g>
        <g transform="matrix(1,0,0,1,610.501,293.884)">
            <g transform="matrix(1,0,0,1,-139.5,-199.5)">
                <clipPath id="_clip1">
                    <rect x="0" y="0" width="279" height="399"/>
                </clipPath>
                <g clip-path="url(#_clip1)">
                    <g transform="matrix(1,0,0,1,-61.1325,-73.8213)">
                        <g transform="matrix(0.889518,0,0,0.889518,-16.7873,11.925)">
                            <g transform="matrix(1,0,0,1,92.814,91.093)">
                                <text x="0px" y="0px" style="font-family:'LucidaGrande', 'Lucida Grande', sans-serif;font-weight:500;font-size:27.536px;">C</text>
                            </g>
                            <g transform="matrix(1,0,0,1,112.456,91.093)">
                                <text x="0px" y="0px" style="font-family:'LucidaGrande', 'Lucida Grande', sans-serif;font-weight:500;font-size:27.536px;">ounting b</text>
                            </g>
                            <g transform="matrix(1,0,0,1,242.375,91.093)">
                                <text x="0px" y="0px" style="font-family:'LucidaGrande', 'Lucida Grande', sans-serif;font-weight:500;font-size:27.536px;">y Det</text>
                            </g>
                            <g transform="matrix(1,0,0,1,313.203,91.093)">
                                <text x="0px" y="0px" style="font-family:'LucidaGrande', 'Lucida Grande', sans-serif;font-weight:500;font-size:27.536px;">ection</text>
                            </g>
                        </g>
                        <g transform="matrix(1,0,0,1,95.093,160.665)">
                            <text x="0px" y="0px" style="font-family:'ArialMT', 'Arial', sans-serif;font-size:12px;">1</text>
                        </g>
                        <g transform="matrix(1,0,0,1,-32.8676,-115.079)">
                            <circle cx="127.434" cy="276.624" r="27.434" style="fill:rgb(148,148,148);"/>
                        </g>
                        <g transform="matrix(1,0,0,1,-32.8676,12.921)">
                            <circle cx="127.434" cy="276.624" r="27.434" style="fill:rgb(148,148,148);"/>
                        </g>
                        <g transform="matrix(1,0,0,1,-32.8676,76.921)">
                            <circle cx="127.434" cy="276.624" r="27.434" style="fill:rgb(148,148,148);"/>
                        </g>
                        <g transform="matrix(0.432381,0,0,0.432381,82.5742,305.181)">
                            <circle cx="127.434" cy="276.624" r="27.434" style="fill:rgb(148,148,148);"/>
                        </g>
                        <g transform="matrix(0.432381,0,0,0.432381,139.625,304.655)">
                            <circle cx="127.434" cy="276.624" r="27.434" style="fill:rgb(148,148,148);"/>
                        </g>
                        <g transform="matrix(0.432381,0,0,0.432381,194.123,304.655)">
                            <circle cx="127.434" cy="276.624" r="27.434" style="fill:rgb(148,148,148);"/>
                        </g>
                        <g transform="matrix(1,0,0,1,31.1324,-51.079)">
                            <circle cx="127.434" cy="276.624" r="27.434" style="fill:rgb(148,148,148);"/>
                        </g>
                        <g transform="matrix(1,0,0,1,95.1324,-51.079)">
                            <circle cx="127.434" cy="276.624" r="27.434" style="fill:rgb(148,148,148);"/>
                        </g>
                        <g transform="matrix(1,0,0,1,95.1324,76.921)">
                            <circle cx="127.434" cy="276.624" r="27.434" style="fill:rgb(148,148,148);"/>
                        </g>
                        <g transform="matrix(1,0,0,1,31.1324,12.921)">
                            <circle cx="127.434" cy="276.624" r="27.434" style="fill:rgb(148,148,148);"/>
                        </g>
                        <g transform="matrix(1,0,0,1,95.1324,-115.079)">
                            <circle cx="127.434" cy="276.624" r="27.434" style="fill:rgb(148,148,148);"/>
                        </g>
                        <g transform="matrix(1,0,0,1,159.132,12.921)">
                            <circle cx="127.434" cy="276.624" r="27.434" style="fill:rgb(148,148,148);"/>
                        </g>
                        <g transform="matrix(1,0,0,1,-54.1838,-124.909)">
                            <path d="M212.75,256L219.934,278.111L243.184,278.111L224.375,291.777L231.559,313.889L212.75,300.223L193.941,313.889L201.125,291.777L182.316,278.111L205.566,278.111L212.75,256Z" style="fill:rgb(253,162,42);"/>
                        </g>
                        <g transform="matrix(1,0,0,1,76.8162,-124.909)">
                            <path d="M212.75,256L219.934,278.111L243.184,278.111L224.375,291.777L231.559,313.889L212.75,300.223L193.941,313.889L201.125,291.777L182.316,278.111L205.566,278.111L212.75,256Z" style="fill:rgb(253,162,42);"/>
                        </g>
                        <g transform="matrix(1,0,0,1,76.8162,-60.9094)">
                            <path d="M212.75,256L219.934,278.111L243.184,278.111L224.375,291.777L231.559,313.889L212.75,300.223L193.941,313.889L201.125,291.777L182.316,278.111L205.566,278.111L212.75,256Z" style="fill:rgb(253,162,42);"/>
                        </g>
                        <g transform="matrix(1,0,0,1,-121.184,-60.9094)">
                            <path d="M212.75,256L219.934,278.111L243.184,278.111L224.375,291.777L231.559,313.889L212.75,300.223L193.941,313.889L201.125,291.777L182.316,278.111L205.566,278.111L212.75,256Z" style="fill:rgb(253,162,42);"/>
                        </g>
                        <g transform="matrix(1,0,0,1,12.8162,3.75405)">
                            <path d="M212.75,256L219.934,278.111L243.184,278.111L224.375,291.777L231.559,313.889L212.75,300.223L193.941,313.889L201.125,291.777L182.316,278.111L205.566,278.111L212.75,256Z" style="fill:rgb(253,162,42);"/>
                        </g>
                        <g transform="matrix(1,0,0,1,76.8162,68.601)">
                            <path d="M212.75,256L219.934,278.111L243.184,278.111L224.375,291.777L231.559,313.889L212.75,300.223L193.941,313.889L201.125,291.777L182.316,278.111L205.566,278.111L212.75,256Z" style="fill:rgb(253,162,42);"/>
                        </g>
                        <g transform="matrix(1,0,0,1,-54.1838,69.1115)">
                            <path d="M212.75,256L219.934,278.111L243.184,278.111L224.375,291.777L231.559,313.889L212.75,300.223L193.941,313.889L201.125,291.777L182.316,278.111L205.566,278.111L212.75,256Z" style="fill:rgb(253,162,42);"/>
                        </g>
                        <g transform="matrix(0.440104,0,0,0.415365,101.093,341.667)">
                            <path d="M212.75,256L219.934,278.111L243.184,278.111L224.375,291.777L231.559,313.889L212.75,300.223L193.941,313.889L201.125,291.777L182.316,278.111L205.566,278.111L212.75,256Z" style="fill:rgb(253,162,42);"/>
                        </g>
                        <g transform="matrix(0.440104,0,0,0.415365,155.169,339.77)">
                            <path d="M212.75,256L219.934,278.111L243.184,278.111L224.375,291.777L231.559,313.889L212.75,300.223L193.941,313.889L201.125,291.777L182.316,278.111L205.566,278.111L212.75,256Z" style="fill:rgb(253,162,42);"/>
                        </g>
                        <g transform="matrix(0.440104,0,0,0.415365,45.5742,341.667)">
                            <path d="M212.75,256L219.934,278.111L243.184,278.111L224.375,291.777L231.559,313.889L212.75,300.223L193.941,313.889L201.125,291.777L182.316,278.111L205.566,278.111L212.75,256Z" style="fill:rgb(253,162,42);"/>
                        </g>
                        <g transform="matrix(1,0,0,1,158.897,434.588)">
                            <text x="0px" y="0px" style="font-family:'ArialMT', 'Arial', sans-serif;font-size:27.536px;">+</text>
                        </g>
                        <g transform="matrix(1,0,0,1,213.065,433.781)">
                            <text x="0px" y="0px" style="font-family:'ArialMT', 'Arial', sans-serif;font-size:27.536px;">+</text>
                        </g>
                        <g transform="matrix(1,0,0,1,269.613,426.547)">
                            <text x="0px" y="0px" style="font-family:'ArialMT', 'Arial', sans-serif;font-size:27.536px;">...</text>
                        </g>
                        <g transform="matrix(1,0,0,1,159.195,469.97)">
                            <text x="0px" y="0px" style="font-family:'ArialMT', 'Arial', sans-serif;font-size:27.536px;">+</text>
                        </g>
                        <g transform="matrix(1,0,0,1,212.541,469.203)">
                            <text x="0px" y="0px" style="font-family:'ArialMT', 'Arial', sans-serif;font-size:27.536px;">+</text>
                        </g>
                        <g transform="matrix(1,0,0,1,269.962,464.353)">
                            <text x="0px" y="0px" style="font-family:'ArialMT', 'Arial', sans-serif;font-size:27.536px;">...</text>
                        </g>
                    </g>
                </g>
            </g>
        </g>
    </g>
</svg>
